#N canvas 484 66 1190 854 10;
#X declare -lib mrpeach;
#X obj 39 41 udpreceive 8338;
#X obj 39 71 unpackOSC;
#X obj 98 180 routeOSC /mouth /eyebrow /eye /jaw /nostrils;
#X floatatom 150 283 5 5 12 1 L_eyebrow - -;
#X floatatom 211 259 5 0 0 1 R_eyebrow - -;
#X obj 150 223 routeOSC /left /right;
#X floatatom 157 151 5 0 0 1 num_faces_found - -;
#X text 52 99 OSC message breakout;
#X text 40 13 FaceOSC sends on port 8338 by default;
#X obj 39 121 routeOSC /pose /gesture /found;
#X obj 323 17 import mrpeach;
#X obj 154 345 unpack 0 0;
#X obj 159 412 > 0.3;
#X obj 159 440 togedge;
#X obj 152 480 tgl 15 0 empty empty empty 17 7 0 10 -262144 -1 -1 0
1;
#X floatatom 186 377 5 4 6 0 - - -;
#X obj 185 480 tgl 15 0 empty empty empty 17 7 0 10 -262144 -1 -1 0
1;
#X msg 150 508 1;
#X msg 191 509 0;
#X text 161 324 PINBALLL;
#X floatatom 176 559 5 0 0 0 - - -;
#X obj 175 595 comport 4 9600;
#X connect 0 0 1 0;
#X connect 1 0 9 0;
#X connect 2 1 5 0;
#X connect 3 0 11 0;
#X connect 5 0 3 0;
#X connect 5 1 4 0;
#X connect 9 1 2 0;
#X connect 9 2 6 0;
#X connect 11 0 12 0;
#X connect 12 0 13 0;
#X connect 13 0 14 0;
#X connect 13 1 16 0;
#X connect 14 0 17 0;
#X connect 15 0 12 1;
#X connect 16 0 18 0;
#X connect 17 0 20 0;
#X connect 18 0 20 0;
#X connect 20 0 21 0;
