#N canvas -8 -8 1920 997 10;
#X declare -lib mrpeach;
#X obj 49 51 udpreceive 8338;
#X obj 49 81 unpackOSC;
#X obj 108 190 routeOSC /mouth /eyebrow /eye /jaw /nostrils;
#X floatatom 160 293 5 5 12 1 L_eyebrow - -;
#X floatatom 221 269 5 0 0 1 R_eyebrow - -;
#X obj 160 233 routeOSC /left /right;
#X floatatom 167 161 5 0 0 1 num_faces_found - -;
#X text 62 109 OSC message breakout;
#X text 50 23 FaceOSC sends on port 8338 by default;
#X obj 49 131 routeOSC /pose /gesture /found;
#X obj 333 27 import mrpeach;
#X obj 5 520 unpack 0 0;
#X obj 2 613 togedge;
#X obj 6 654 tgl 15 0 empty empty empty 17 7 0 10 -262144 -1 -1 0 1
;
#X floatatom 29 552 5 7 8 0 - - -;
#X obj 28 653 tgl 15 0 empty empty empty 17 7 0 10 -262144 -1 -1 0
1;
#X msg 4 682 1;
#X msg 34 682 0;
#X obj 229 821 comport 3 9600;
#X obj 135 520 unpack 0 0;
#X obj 137 616 togedge;
#X obj 138 656 tgl 15 0 empty empty empty 17 7 0 10 -262144 -1 -1 0
1;
#X floatatom 165 553 5 7 8 0 - - -;
#X obj 163 656 tgl 15 0 empty empty empty 17 7 0 10 -262144 -1 -1 0
1;
#X msg 136 684 1;
#X msg 169 685 0;
#X obj 2 585 < 0.3;
#X obj 137 588 < 0.3;
#X obj 261 526 unpack 0 0;
#X obj 266 621 togedge;
#X obj 267 661 tgl 15 0 empty empty empty 17 7 0 10 -262144 -1 -1 0
1;
#X floatatom 287 554 5 8 9 0 - - -;
#X obj 292 661 tgl 15 0 empty empty empty 17 7 0 10 -262144 -1 -1 0
1;
#X msg 298 690 0;
#X obj 399 528 unpack 0 0;
#X obj 401 624 togedge;
#X obj 402 664 tgl 15 0 empty empty empty 17 7 0 10 -262144 -1 -1 0
1;
#X floatatom 429 561 5 8 9 0 - - -;
#X obj 427 664 tgl 15 0 empty empty empty 17 7 0 10 -262144 -1 -1 0
1;
#X msg 433 693 0;
#X obj 266 593 > 0.3;
#X obj 401 596 > 0.3;
#X text 60 475 frown (reverse);
#X text 316 471 raise (forward);
#X msg 265 689 3;
#X msg 400 692 3;
#X text 118 410 SKATEBOARD;
#X floatatom 234 783 5 0 0 0 - - -;
#X text 27 502 Left Eyebrow;
#X text 252 507 Left Eyebrow;
#X text 131 500 Right Eyebrow;
#X text 396 506 Right Eyebrow;
#X connect 0 0 1 0;
#X connect 1 0 9 0;
#X connect 2 1 5 0;
#X connect 3 0 11 0;
#X connect 3 0 28 0;
#X connect 5 0 3 0;
#X connect 5 1 4 0;
#X connect 9 1 2 0;
#X connect 9 2 6 0;
#X connect 11 0 26 0;
#X connect 12 0 13 0;
#X connect 12 1 15 0;
#X connect 13 0 16 0;
#X connect 14 0 26 1;
#X connect 15 0 17 0;
#X connect 16 0 47 0;
#X connect 17 0 47 0;
#X connect 19 0 27 0;
#X connect 20 0 21 0;
#X connect 20 1 23 0;
#X connect 21 0 24 0;
#X connect 22 0 27 1;
#X connect 23 0 25 0;
#X connect 26 0 12 0;
#X connect 27 0 20 0;
#X connect 28 0 40 0;
#X connect 29 0 30 0;
#X connect 29 1 32 0;
#X connect 30 0 44 0;
#X connect 31 0 40 1;
#X connect 32 0 33 0;
#X connect 33 0 47 0;
#X connect 34 0 41 0;
#X connect 35 0 36 0;
#X connect 35 1 38 0;
#X connect 36 0 45 0;
#X connect 37 0 41 1;
#X connect 38 0 39 0;
#X connect 40 0 29 0;
#X connect 41 0 35 0;
#X connect 44 0 47 0;
#X connect 47 0 18 0;
